<svg xmlns="http://www.w3.org/2000/svg" viewBox="0 0 1024 1792" width="1024" height="1792">
  <defs>
    <linearGradient id="bg" x1="0%" y1="0%" x2="0%" y2="100%">
      <stop offset="0%" stop-color="#140800"/>
      <stop offset="100%" stop-color="#0a0400"/>
    </linearGradient>
    <linearGradient id="acc" x1="0%" y1="0%" x2="100%" y2="0%">
      <stop offset="0%" stop-color="#f97316" stop-opacity="0"/>
      <stop offset="50%" stop-color="#f97316"/>
      <stop offset="100%" stop-color="#f97316" stop-opacity="0"/>
    </linearGradient>
    <linearGradient id="acc2" x1="0%" y1="0%" x2="100%" y2="100%">
      <stop offset="0%" stop-color="#f97316"/>
      <stop offset="100%" stop-color="#fb923c"/>
    </linearGradient>
    <linearGradient id="fadeBottom" x1="0%" y1="0%" x2="0%" y2="100%">
      <stop offset="0%" stop-color="#000000" stop-opacity="0"/>
      <stop offset="55%" stop-color="#000000" stop-opacity="0.85"/>
      <stop offset="100%" stop-color="#000000" stop-opacity="0.98"/>
    </linearGradient>
    <linearGradient id="fadeTop" x1="0%" y1="0%" x2="0%" y2="100%">
      <stop offset="0%" stop-color="#000000" stop-opacity="0.7"/>
      <stop offset="100%" stop-color="#000000" stop-opacity="0"/>
    </linearGradient>
  </defs>

  <!-- Fundo -->
  <rect width="1024" height="1792" fill="url(#bg)"/>

  <!-- Elementos visuais tematicos -->
  
    <!-- Grade de mercado -->
    <g opacity="0.06" stroke="#f97316" stroke-width="0.5">
      <line x1="0" y1="200" x2="1024" y2="200"/>
      <line x1="0" y1="350" x2="1024" y2="350"/>
      <line x1="0" y1="500" x2="1024" y2="500"/>
      <line x1="0" y1="650" x2="1024" y2="650"/>
      <line x1="128" y1="0" x2="128" y2="900"/>
      <line x1="256" y1="0" x2="256" y2="900"/>
      <line x1="384" y1="0" x2="384" y2="900"/>
      <line x1="512" y1="0" x2="512" y2="900"/>
      <line x1="640" y1="0" x2="640" y2="900"/>
      <line x1="768" y1="0" x2="768" y2="900"/>
      <line x1="896" y1="0" x2="896" y2="900"/>
    </g>
    <!-- Grafico candlestick -->
    <g>
      <line x1="100" y1="720" x2="100" y2="640" stroke="#22c55e" stroke-width="1.5"/>
      <rect x="92" y="680" width="16" height="40" fill="#22c55e" opacity="0.8"/>
      <line x1="160" y1="680" x2="160" y2="590" stroke="#22c55e" stroke-width="1.5"/>
      <rect x="152" y="630" width="16" height="45" fill="#22c55e" opacity="0.8"/>
      <line x1="220" y1="650" x2="220" y2="570" stroke="#ef4444" stroke-width="1.5"/>
      <rect x="212" y="600" width="16" height="40" fill="#ef4444" opacity="0.8"/>
      <line x1="280" y1="580" x2="280" y2="480" stroke="#22c55e" stroke-width="1.5"/>
      <rect x="272" y="510" width="16" height="50" fill="#22c55e" opacity="0.8"/>
      <line x1="340" y1="500" x2="340" y2="400" stroke="#22c55e" stroke-width="1.5"/>
      <rect x="332" y="420" width="16" height="60" fill="#22c55e" opacity="0.8"/>
      <line x1="400" y1="440" x2="400" y2="360" stroke="#ef4444" stroke-width="1.5"/>
      <rect x="392" y="380" width="16" height="40" fill="#ef4444" opacity="0.8"/>
      <line x1="460" y1="380" x2="460" y2="280" stroke="#22c55e" stroke-width="1.5"/>
      <rect x="452" y="300" width="16" height="60" fill="#22c55e" opacity="0.8"/>
      <line x1="520" y1="300" x2="520" y2="200" stroke="#22c55e" stroke-width="1.5"/>
      <rect x="512" y="220" width="16" height="60" fill="#22c55e" opacity="0.8"/>
    </g>
    <!-- Linha de tendencia ATH -->
    <polyline points="100,720 160,660 220,630 280,550 340,470 400,420 460,350 520,270 580,220 640,180" fill="none" stroke="#f97316" stroke-width="2.5" opacity="0.8"/>
    <circle cx="640" cy="180" r="8" fill="#f97316"/>
    <text x="660" y="175" fill="#f97316" font-family="Arial" font-weight="700" font-size="20">ATH $109K</text>
    <!-- Simbolo Bitcoin grande -->
    <circle cx="512" cy="520" r="160" fill="#f97316" opacity="0.12"/>
    <circle cx="512" cy="520" r="140" fill="none" stroke="#f97316" stroke-width="2" opacity="0.3"/>
    <text x="512" y="575" text-anchor="middle" fill="#f97316" font-family="Arial" font-weight="900" font-size="140" opacity="0.25">₿</text>

  <!-- Gradiente escuro embaixo (area do titulo) -->
  <rect width="1024" height="1792" fill="url(#fadeBottom)"/>

  <!-- Gradiente escuro em cima -->
  <rect width="1024" height="340" fill="url(#fadeTop)"/>

  <!-- Linha de cor no topo -->
  <rect x="0" y="0" width="1024" height="10" fill="url(#acc2)"/>

  <!-- TITULO -->
  
    <text x="516" y="1137" text-anchor="middle" fill="#000000" font-family="Arial Black, Arial" font-weight="900" font-size="72" opacity="0.5">BITCOIN — A</text>
    <text x="512" y="1134" text-anchor="middle" fill="#ffffff" font-family="Arial Black, Arial" font-weight="900" font-size="72" stroke="#000000" stroke-width="6" paint-order="stroke">BITCOIN — A</text>
    <text x="516" y="1219" text-anchor="middle" fill="#000000" font-family="Arial Black, Arial" font-weight="900" font-size="72" opacity="0.5">MOEDA QUE MUDOU</text>
    <text x="512" y="1216" text-anchor="middle" fill="#ffffff" font-family="Arial Black, Arial" font-weight="900" font-size="72" stroke="#000000" stroke-width="6" paint-order="stroke">MOEDA QUE MUDOU</text>
    <text x="516" y="1301" text-anchor="middle" fill="#000000" font-family="Arial Black, Arial" font-weight="900" font-size="72" opacity="0.5">A HISTÓRIA DO</text>
    <text x="512" y="1298" text-anchor="middle" fill="#ffffff" font-family="Arial Black, Arial" font-weight="900" font-size="72" stroke="#000000" stroke-width="6" paint-order="stroke">A HISTÓRIA DO</text>
    <text x="516" y="1383" text-anchor="middle" fill="#000000" font-family="Arial Black, Arial" font-weight="900" font-size="72" opacity="0.5">MUNDO</text>
    <text x="512" y="1380" text-anchor="middle" fill="#ffffff" font-family="Arial Black, Arial" font-weight="900" font-size="72" stroke="#000000" stroke-width="6" paint-order="stroke">MUNDO</text>

  <!-- Linha decorativa -->
  <rect x="60" y="1404" width="904" height="5" fill="url(#acc)" opacity="0.9" rx="2"/>

  <!-- Subtitulo -->
  <text x="512" y="1444" text-anchor="middle" fill="#f97316" font-family="Arial" font-weight="700" font-size="26" opacity="0.95"
    stroke="#000000" stroke-width="3" paint-order="stroke">ATH $109K · HALVING · ETF</text>

  <!-- Metadados -->
  <text x="512" y="1757" text-anchor="middle" fill="#9ca3af" font-family="Arial" font-size="22" opacity="0.85"
    stroke="#000000" stroke-width="3" paint-order="stroke">30H  |  35 MODULOS  |  210 TOPICOS</text>

  <!-- Barra lateral esquerda -->
  <rect x="0" y="0" width="8" height="1792" fill="url(#acc2)" opacity="0.8"/>

</svg>