<svg xmlns="http://www.w3.org/2000/svg" viewBox="0 0 1024 1792" width="1024" height="1792">
  <defs>
    <linearGradient id="bg" x1="0%" y1="0%" x2="0%" y2="100%">
      <stop offset="0%" stop-color="#1a0000"/>
      <stop offset="100%" stop-color="#0d0000"/>
    </linearGradient>
    <linearGradient id="acc" x1="0%" y1="0%" x2="100%" y2="0%">
      <stop offset="0%" stop-color="#dc2626" stop-opacity="0"/>
      <stop offset="50%" stop-color="#dc2626"/>
      <stop offset="100%" stop-color="#dc2626" stop-opacity="0"/>
    </linearGradient>
    <linearGradient id="acc2" x1="0%" y1="0%" x2="100%" y2="100%">
      <stop offset="0%" stop-color="#dc2626"/>
      <stop offset="100%" stop-color="#991b1b"/>
    </linearGradient>
    <linearGradient id="fadeBottom" x1="0%" y1="0%" x2="0%" y2="100%">
      <stop offset="0%" stop-color="#000000" stop-opacity="0"/>
      <stop offset="55%" stop-color="#000000" stop-opacity="0.85"/>
      <stop offset="100%" stop-color="#000000" stop-opacity="0.98"/>
    </linearGradient>
    <linearGradient id="fadeTop" x1="0%" y1="0%" x2="0%" y2="100%">
      <stop offset="0%" stop-color="#000000" stop-opacity="0.7"/>
      <stop offset="100%" stop-color="#000000" stop-opacity="0"/>
    </linearGradient>
  </defs>

  <!-- Fundo -->
  <rect width="1024" height="1792" fill="url(#bg)"/>

  <!-- Elementos visuais tematicos -->
  
    <!-- Predio bancario -->
    <g opacity="0.4">
      <rect x="262" y="200" width="500" height="400" fill="#1a0000" stroke="#dc2626" stroke-width="1.5"/>
      <polygon points="262,200 512,120 762,200" fill="#0d0000" stroke="#dc2626" stroke-width="1.5"/>
      <!-- Colunas -->
      <rect x="290" y="220" width="30" height="380" fill="#111" stroke="#dc2626" stroke-width="0.5" opacity="0.8"/>
      <rect x="360" y="220" width="30" height="380" fill="#111" stroke="#dc2626" stroke-width="0.5" opacity="0.8"/>
      <rect x="430" y="220" width="30" height="380" fill="#111" stroke="#dc2626" stroke-width="0.5" opacity="0.8"/>
      <rect x="500" y="220" width="30" height="380" fill="#111" stroke="#dc2626" stroke-width="0.5" opacity="0.8"/>
      <rect x="570" y="220" width="30" height="380" fill="#111" stroke="#dc2626" stroke-width="0.5" opacity="0.8"/>
      <rect x="640" y="220" width="30" height="380" fill="#111" stroke="#dc2626" stroke-width="0.5" opacity="0.8"/>
      <rect x="710" y="220" width="30" height="380" fill="#111" stroke="#dc2626" stroke-width="0.5" opacity="0.8"/>
    </g>
    <!-- Cofre quebrado -->
    <circle cx="512" cy="420" r="100" fill="#0a0000" stroke="#dc2626" stroke-width="3" opacity="0.8"/>
    <circle cx="512" cy="420" r="75" fill="none" stroke="#dc2626" stroke-width="2" opacity="0.5"/>
    <!-- Raios do cofre -->
    <g stroke="#dc2626" stroke-width="2" opacity="0.6">
      <line x1="512" y1="320" x2="512" y2="340"/>
      <line x1="512" y1="500" x2="512" y2="520"/>
      <line x1="412" y1="420" x2="432" y2="420"/>
      <line x1="592" y1="420" x2="612" y2="420"/>
    </g>
    <!-- Notas caindo -->
    <g opacity="0.5" fill="#22c55e">
      <rect x="350" y="490" width="40" height="20" rx="2" transform="rotate(-15,370,500)"/>
      <rect x="580" y="510" width="40" height="20" rx="2" transform="rotate(10,600,520)"/>
      <rect x="450" y="540" width="40" height="20" rx="2" transform="rotate(-5,470,550)"/>
      <rect x="630" y="470" width="40" height="20" rx="2" transform="rotate(20,650,480)"/>
    </g>
    <!-- R$52bi -->
    <text x="512" y="430" text-anchor="middle" fill="#dc2626" font-family="Arial" font-weight="900" font-size="36" opacity="0.9">R$52bi</text>

  <!-- Gradiente escuro embaixo (area do titulo) -->
  <rect width="1024" height="1792" fill="url(#fadeBottom)"/>

  <!-- Gradiente escuro em cima -->
  <rect width="1024" height="340" fill="url(#fadeTop)"/>

  <!-- Linha de cor no topo -->
  <rect x="0" y="0" width="1024" height="10" fill="url(#acc2)"/>

  <!-- TITULO -->
  
    <text x="516" y="1285" text-anchor="middle" fill="#000000" font-family="Arial Black, Arial" font-weight="900" font-size="88" opacity="0.5">CASO BANCO</text>
    <text x="512" y="1282" text-anchor="middle" fill="#ffffff" font-family="Arial Black, Arial" font-weight="900" font-size="88" stroke="#000000" stroke-width="6" paint-order="stroke">CASO BANCO</text>
    <text x="516" y="1383" text-anchor="middle" fill="#000000" font-family="Arial Black, Arial" font-weight="900" font-size="88" opacity="0.5">MASTER</text>
    <text x="512" y="1380" text-anchor="middle" fill="#ffffff" font-family="Arial Black, Arial" font-weight="900" font-size="88" stroke="#000000" stroke-width="6" paint-order="stroke">MASTER</text>

  <!-- Linha decorativa -->
  <rect x="60" y="1404" width="904" height="5" fill="url(#acc)" opacity="0.9" rx="2"/>

  <!-- Subtitulo -->
  <text x="512" y="1444" text-anchor="middle" fill="#dc2626" font-family="Arial" font-weight="700" font-size="26" opacity="0.95"
    stroke="#000000" stroke-width="3" paint-order="stroke">R$52 BILHOES · CPI · FRAUDE</text>

  <!-- Metadados -->
  <text x="512" y="1757" text-anchor="middle" fill="#9ca3af" font-family="Arial" font-size="22" opacity="0.85"
    stroke="#000000" stroke-width="3" paint-order="stroke">1H  |  7 MODULOS  |  7 TOPICOS</text>

  <!-- Barra lateral esquerda -->
  <rect x="0" y="0" width="8" height="1792" fill="url(#acc2)" opacity="0.8"/>

</svg>