<svg xmlns="http://www.w3.org/2000/svg" viewBox="0 0 1024 1792" width="1024" height="1792">
  <defs>
    <linearGradient id="bg" x1="0%" y1="0%" x2="0%" y2="100%">
      <stop offset="0%" stop-color="#001400"/>
      <stop offset="100%" stop-color="#000a00"/>
    </linearGradient>
    <linearGradient id="acc" x1="0%" y1="0%" x2="100%" y2="0%">
      <stop offset="0%" stop-color="#f59e0b" stop-opacity="0"/>
      <stop offset="50%" stop-color="#f59e0b"/>
      <stop offset="100%" stop-color="#f59e0b" stop-opacity="0"/>
    </linearGradient>
    <linearGradient id="acc2" x1="0%" y1="0%" x2="100%" y2="100%">
      <stop offset="0%" stop-color="#f59e0b"/>
      <stop offset="100%" stop-color="#16a34a"/>
    </linearGradient>
    <linearGradient id="fadeBottom" x1="0%" y1="0%" x2="0%" y2="100%">
      <stop offset="0%" stop-color="#000000" stop-opacity="0"/>
      <stop offset="55%" stop-color="#000000" stop-opacity="0.85"/>
      <stop offset="100%" stop-color="#000000" stop-opacity="0.98"/>
    </linearGradient>
    <linearGradient id="fadeTop" x1="0%" y1="0%" x2="0%" y2="100%">
      <stop offset="0%" stop-color="#000000" stop-opacity="0.7"/>
      <stop offset="100%" stop-color="#000000" stop-opacity="0"/>
    </linearGradient>
  </defs>

  <!-- Fundo -->
  <rect width="1024" height="1792" fill="url(#bg)"/>

  <!-- Elementos visuais tematicos -->
  
    <!-- Estadio -->
    <ellipse cx="512" cy="500" rx="400" ry="320" fill="none" stroke="#16a34a" stroke-width="2" opacity="0.5"/>
    <ellipse cx="512" cy="500" rx="340" ry="260" fill="none" stroke="#16a34a" stroke-width="1" opacity="0.3"/>
    <!-- Gramado -->
    <ellipse cx="512" cy="500" rx="280" ry="200" fill="#052e16" opacity="0.6"/>
    <ellipse cx="512" cy="500" rx="200" ry="145" fill="#065f46" opacity="0.5"/>
    <ellipse cx="512" cy="500" rx="120" ry="90" fill="#052e16" opacity="0.5"/>
    <circle cx="512" cy="500" r="50" fill="none" stroke="#fff" stroke-width="1" opacity="0.2"/>
    <!-- Taca dourada -->
    <path d="M452,320 C432,320 420,340 420,360 C420,400 440,430 470,445 L465,480 L445,495 L575,495 L555,480 L550,445 C580,430 600,400 600,360 C600,340 588,320 568,320 Z" fill="#f59e0b" opacity="0.9"/>
    <rect x="480" y="490" width="60" height="8" rx="2" fill="#d97706"/>
    <ellipse cx="512" cy="498" rx="50" ry="8" fill="#f59e0b"/>
    <!-- Brilho na taca -->
    <path d="M452,320 C432,320 420,340 420,360 C420,400 440,430 470,445 L465,480 L445,495 L575,495 L555,480 L550,445 C580,430 600,400 600,360 C600,340 588,320 568,320 Z" fill="none" stroke="#fde68a" stroke-width="2" opacity="0.6"/>
    <!-- Estrelas -->
    <text x="512" y="400" text-anchor="middle" fill="#7c2d12" font-size="18" opacity="0.8">★★★★★★</text>
    <!-- Holofotes -->
    <g opacity="0.15" stroke="#f59e0b" stroke-width="30" stroke-linecap="round">
      <line x1="100" y1="150" x2="500" y2="490"/>
      <line x1="924" y1="150" x2="524" y2="490"/>
    </g>

  <!-- Gradiente escuro embaixo (area do titulo) -->
  <rect width="1024" height="1792" fill="url(#fadeBottom)"/>

  <!-- Gradiente escuro em cima -->
  <rect width="1024" height="340" fill="url(#fadeTop)"/>

  <!-- Linha de cor no topo -->
  <rect x="0" y="0" width="1024" height="10" fill="url(#acc2)"/>

  <!-- TITULO -->
  
    <text x="516" y="1301" text-anchor="middle" fill="#000000" font-family="Arial Black, Arial" font-weight="900" font-size="72" opacity="0.5">COPA DO MUNDO</text>
    <text x="512" y="1298" text-anchor="middle" fill="#ffffff" font-family="Arial Black, Arial" font-weight="900" font-size="72" stroke="#000000" stroke-width="6" paint-order="stroke">COPA DO MUNDO</text>
    <text x="516" y="1383" text-anchor="middle" fill="#000000" font-family="Arial Black, Arial" font-weight="900" font-size="72" opacity="0.5">2026</text>
    <text x="512" y="1380" text-anchor="middle" fill="#ffffff" font-family="Arial Black, Arial" font-weight="900" font-size="72" stroke="#000000" stroke-width="6" paint-order="stroke">2026</text>

  <!-- Linha decorativa -->
  <rect x="60" y="1404" width="904" height="5" fill="url(#acc)" opacity="0.9" rx="2"/>

  <!-- Subtitulo -->
  <text x="512" y="1444" text-anchor="middle" fill="#f59e0b" font-family="Arial" font-weight="700" font-size="26" opacity="0.95"
    stroke="#000000" stroke-width="3" paint-order="stroke">EUA · MEXICO · CANADA</text>

  <!-- Metadados -->
  <text x="512" y="1757" text-anchor="middle" fill="#9ca3af" font-family="Arial" font-size="22" opacity="0.85"
    stroke="#000000" stroke-width="3" paint-order="stroke">1H  |  7 MODULOS  |  7 TOPICOS</text>

  <!-- Barra lateral esquerda -->
  <rect x="0" y="0" width="8" height="1792" fill="url(#acc2)" opacity="0.8"/>

</svg>