<svg xmlns="http://www.w3.org/2000/svg" viewBox="0 0 1024 1792" width="1024" height="1792">
  <defs>
    <linearGradient id="bg" x1="0%" y1="0%" x2="0%" y2="100%">
      <stop offset="0%" stop-color="#0d0014"/>
      <stop offset="100%" stop-color="#080009"/>
    </linearGradient>
    <linearGradient id="acc" x1="0%" y1="0%" x2="100%" y2="0%">
      <stop offset="0%" stop-color="#a855f7" stop-opacity="0"/>
      <stop offset="50%" stop-color="#a855f7"/>
      <stop offset="100%" stop-color="#a855f7" stop-opacity="0"/>
    </linearGradient>
    <linearGradient id="acc2" x1="0%" y1="0%" x2="100%" y2="100%">
      <stop offset="0%" stop-color="#a855f7"/>
      <stop offset="100%" stop-color="#c084fc"/>
    </linearGradient>
    <linearGradient id="fadeBottom" x1="0%" y1="0%" x2="0%" y2="100%">
      <stop offset="0%" stop-color="#000000" stop-opacity="0"/>
      <stop offset="55%" stop-color="#000000" stop-opacity="0.85"/>
      <stop offset="100%" stop-color="#000000" stop-opacity="0.98"/>
    </linearGradient>
    <linearGradient id="fadeTop" x1="0%" y1="0%" x2="0%" y2="100%">
      <stop offset="0%" stop-color="#000000" stop-opacity="0.7"/>
      <stop offset="100%" stop-color="#000000" stop-opacity="0"/>
    </linearGradient>
  </defs>

  <!-- Fundo -->
  <rect width="1024" height="1792" fill="url(#bg)"/>

  <!-- Elementos visuais tematicos -->
  
    <!-- Cerebro glowing -->
    <radialGradient id="brainGlow" cx="50%" cy="45%" r="40%">
      <stop offset="0%" stop-color="#a855f7" stop-opacity="0.5"/>
      <stop offset="60%" stop-color="#7c3aed" stop-opacity="0.2"/>
      <stop offset="100%" stop-color="#000" stop-opacity="0"/>
    </radialGradient>
    <rect x="0" y="0" width="1024" height="1792" fill="url(#brainGlow)"/>
    <!-- Contorno cerebro -->
    <path d="M312,180 C260,180 210,230 210,290 C210,330 225,365 250,388 C228,408 215,438 215,470 C215,530 258,578 312,578 C328,592 350,600 375,600 L649,600 C674,600 696,592 712,578 C766,578 809,530 809,470 C809,438 796,408 774,388 C799,365 814,330 814,290 C814,230 764,180 712,180 C698,162 678,152 655,152 L369,152 C346,152 326,162 312,180 Z" fill="none" stroke="#a855f7" stroke-width="2" opacity="0.6"/>
    <!-- Divisao hemisferios -->
    <line x1="512" y1="152" x2="512" y2="600" stroke="#a855f7" stroke-width="1" stroke-dasharray="6,4" opacity="0.3"/>
    <!-- Sulcos -->
    <path d="M270,250 Q340,230 400,260 Q460,230 520,260 Q580,230 640,260 Q700,230 754,250" fill="none" stroke="#7c3aed" stroke-width="1.5" opacity="0.5"/>
    <path d="M250,320 Q320,300 390,325 Q460,300 530,325 Q600,300 670,325 Q720,300 770,320" fill="none" stroke="#7c3aed" stroke-width="1.5" opacity="0.45"/>
    <path d="M240,395 Q315,375 385,400 Q455,375 525,400 Q595,375 665,400 Q730,375 780,395" fill="none" stroke="#7c3aed" stroke-width="1.5" opacity="0.4"/>
    <path d="M248,468 Q320,448 395,470 Q468,448 540,470 Q613,448 685,470 Q748,448 776,468" fill="none" stroke="#7c3aed" stroke-width="1.4" opacity="0.35"/>
    <path d="M265,535 Q340,515 415,535 Q490,515 565,535 Q635,515 706,535 Q750,515 759,535" fill="none" stroke="#7c3aed" stroke-width="1.2" opacity="0.3"/>
    <!-- Neuronios -->
    <circle cx="320" cy="270" r="8" fill="#a855f7" opacity="0.9"/>
    <circle cx="512" cy="230" r="8" fill="#ec4899" opacity="0.9"/>
    <circle cx="704" cy="270" r="8" fill="#3b82f6" opacity="0.9"/>
    <circle cx="280" cy="390" r="7" fill="#a855f7" opacity="0.8"/>
    <circle cx="420" cy="350" r="7" fill="#ec4899" opacity="0.8"/>
    <circle cx="512" cy="440" r="9" fill="#a855f7" opacity="0.95"/>
    <circle cx="604" cy="350" r="7" fill="#3b82f6" opacity="0.8"/>
    <circle cx="744" cy="390" r="7" fill="#a855f7" opacity="0.8"/>
    <!-- Sinapses -->
    <line x1="320" y1="270" x2="512" y2="230" stroke="#a855f7" stroke-width="1.5" opacity="0.6"/>
    <line x1="512" y1="230" x2="704" y2="270" stroke="#ec4899" stroke-width="1.5" opacity="0.6"/>
    <line x1="320" y1="270" x2="280" y2="390" stroke="#a855f7" stroke-width="1.2" opacity="0.5"/>
    <line x1="512" y1="230" x2="420" y2="350" stroke="#ec4899" stroke-width="1.2" opacity="0.5"/>
    <line x1="512" y1="230" x2="604" y2="350" stroke="#3b82f6" stroke-width="1.2" opacity="0.5"/>
    <line x1="420" y1="350" x2="512" y2="440" stroke="#a855f7" stroke-width="1.2" opacity="0.5"/>
    <line x1="604" y1="350" x2="512" y2="440" stroke="#3b82f6" stroke-width="1.2" opacity="0.5"/>
    <!-- Pecas de xadrez -->
    <g opacity="0.2" fill="#a855f7">
      <rect x="180" y="480" width="30" height="60" rx="4"/>
      <circle cx="195" cy="470" r="20"/>
      <rect x="794" y="480" width="30" height="60" rx="4"/>
      <circle cx="809" cy="470" r="20"/>
    </g>

  <!-- Gradiente escuro embaixo (area do titulo) -->
  <rect width="1024" height="1792" fill="url(#fadeBottom)"/>

  <!-- Gradiente escuro em cima -->
  <rect width="1024" height="340" fill="url(#fadeTop)"/>

  <!-- Linha de cor no topo -->
  <rect x="0" y="0" width="1024" height="10" fill="url(#acc2)"/>

  <!-- TITULO -->
  
    <text x="516" y="1285" text-anchor="middle" fill="#000000" font-family="Arial Black, Arial" font-weight="900" font-size="88" opacity="0.5">TÉCNICAS DE</text>
    <text x="512" y="1282" text-anchor="middle" fill="#ffffff" font-family="Arial Black, Arial" font-weight="900" font-size="88" stroke="#000000" stroke-width="6" paint-order="stroke">TÉCNICAS DE</text>
    <text x="516" y="1383" text-anchor="middle" fill="#000000" font-family="Arial Black, Arial" font-weight="900" font-size="88" opacity="0.5">PERSUASÃO</text>
    <text x="512" y="1380" text-anchor="middle" fill="#ffffff" font-family="Arial Black, Arial" font-weight="900" font-size="88" stroke="#000000" stroke-width="6" paint-order="stroke">PERSUASÃO</text>

  <!-- Linha decorativa -->
  <rect x="60" y="1404" width="904" height="5" fill="url(#acc)" opacity="0.9" rx="2"/>

  <!-- Subtitulo -->
  <text x="512" y="1444" text-anchor="middle" fill="#a855f7" font-family="Arial" font-weight="700" font-size="26" opacity="0.95"
    stroke="#000000" stroke-width="3" paint-order="stroke">INFLUENCIA · PNL · PSICOLOGIA</text>

  <!-- Metadados -->
  <text x="512" y="1757" text-anchor="middle" fill="#9ca3af" font-family="Arial" font-size="22" opacity="0.85"
    stroke="#000000" stroke-width="3" paint-order="stroke">48H  |  27 MODULOS  |  189 TOPICOS</text>

  <!-- Barra lateral esquerda -->
  <rect x="0" y="0" width="8" height="1792" fill="url(#acc2)" opacity="0.8"/>

</svg>