<svg xmlns="http://www.w3.org/2000/svg" viewBox="0 0 1024 1792" width="1024" height="1792">
  <defs>
    <linearGradient id="bg" x1="0%" y1="0%" x2="0%" y2="100%">
      <stop offset="0%" stop-color="#000a1a"/>
      <stop offset="100%" stop-color="#00050f"/>
    </linearGradient>
    <linearGradient id="acc" x1="0%" y1="0%" x2="100%" y2="0%">
      <stop offset="0%" stop-color="#3b82f6" stop-opacity="0"/>
      <stop offset="50%" stop-color="#3b82f6"/>
      <stop offset="100%" stop-color="#3b82f6" stop-opacity="0"/>
    </linearGradient>
    <linearGradient id="acc2" x1="0%" y1="0%" x2="100%" y2="100%">
      <stop offset="0%" stop-color="#3b82f6"/>
      <stop offset="100%" stop-color="#60a5fa"/>
    </linearGradient>
    <linearGradient id="fadeBottom" x1="0%" y1="0%" x2="0%" y2="100%">
      <stop offset="0%" stop-color="#000000" stop-opacity="0"/>
      <stop offset="55%" stop-color="#000000" stop-opacity="0.85"/>
      <stop offset="100%" stop-color="#000000" stop-opacity="0.98"/>
    </linearGradient>
    <linearGradient id="fadeTop" x1="0%" y1="0%" x2="0%" y2="100%">
      <stop offset="0%" stop-color="#000000" stop-opacity="0.7"/>
      <stop offset="100%" stop-color="#000000" stop-opacity="0"/>
    </linearGradient>
  </defs>

  <!-- Fundo -->
  <rect width="1024" height="1792" fill="url(#bg)"/>

  <!-- Elementos visuais tematicos -->
  
    <!-- Dashboard frame -->
    <rect x="62" y="80" width="900" height="620" rx="8" fill="#070d18" stroke="#1e3a5f" stroke-width="1.5" opacity="0.9"/>
    <rect x="62" y="80" width="900" height="36" rx="8" fill="#0d1421"/>
    <!-- Botoes mac style -->
    <circle cx="90" cy="98" r="7" fill="#ef4444" opacity="0.7"/>
    <circle cx="114" cy="98" r="7" fill="#f59e0b" opacity="0.7"/>
    <circle cx="138" cy="98" r="7" fill="#22c55e" opacity="0.7"/>
    <text x="512" y="103" text-anchor="middle" fill="#6b7280" font-family="Arial" font-size="13" letter-spacing="2">ADS MANAGER — DASHBOARD</text>
    <!-- Cards de metricas -->
    <rect x="90" y="130" width="190" height="100" rx="4" fill="#111827" stroke="#1e3a5f" stroke-width="0.5"/>
    <text x="185" y="165" text-anchor="middle" fill="#6b7280" font-family="Arial" font-size="13" letter-spacing="1">ROAS</text>
    <text x="185" y="205" text-anchor="middle" fill="#22c55e" font-family="Arial" font-weight="900" font-size="38">8.4x</text>
    <rect x="300" y="130" width="190" height="100" rx="4" fill="#111827" stroke="#1e3a5f" stroke-width="0.5"/>
    <text x="395" y="165" text-anchor="middle" fill="#6b7280" font-family="Arial" font-size="13" letter-spacing="1">CTR</text>
    <text x="395" y="205" text-anchor="middle" fill="#3b82f6" font-family="Arial" font-weight="900" font-size="38">4.7%</text>
    <rect x="510" y="130" width="190" height="100" rx="4" fill="#111827" stroke="#1e3a5f" stroke-width="0.5"/>
    <text x="605" y="165" text-anchor="middle" fill="#6b7280" font-family="Arial" font-size="13" letter-spacing="1">CPC</text>
    <text x="605" y="205" text-anchor="middle" fill="#f59e0b" font-family="Arial" font-weight="900" font-size="32">R$0,38</text>
    <rect x="720" y="130" width="200" height="100" rx="4" fill="#111827" stroke="#1e3a5f" stroke-width="0.5"/>
    <text x="820" y="165" text-anchor="middle" fill="#6b7280" font-family="Arial" font-size="13" letter-spacing="1">CONV.</text>
    <text x="820" y="205" text-anchor="middle" fill="#a855f7" font-family="Arial" font-weight="900" font-size="38">12.3%</text>
    <!-- Grafico de barras crescente -->
    <rect x="90" y="244" width="830" height="200" rx="4" fill="#0d1421" stroke="#1e3a5f" stroke-width="0.5"/>
    <text x="110" y="268" fill="#6b7280" font-family="Arial" font-size="12" letter-spacing="1">RECEITA DIARIA (R$)</text>
    <g fill="#3b82f6">
      <rect x="110" y="400" width="35" height="35" opacity="0.6"/>
      <rect x="165" y="385" width="35" height="50" opacity="0.65"/>
      <rect x="220" y="370" width="35" height="65" opacity="0.7"/>
      <rect x="275" y="380" width="35" height="55" opacity="0.65"/>
      <rect x="330" y="355" width="35" height="80" opacity="0.75"/>
      <rect x="385" y="335" width="35" height="100" opacity="0.8"/>
      <rect x="440" y="345" width="35" height="90" opacity="0.75"/>
      <rect x="495" y="318" width="35" height="117" opacity="0.85"/>
      <rect x="550" y="300" width="35" height="135" opacity="0.9"/>
      <rect x="605" y="308" width="35" height="127" opacity="0.85"/>
    </g>
    <rect x="660" y="282" width="35" height="153" fill="#22c55e" opacity="1"/>
    <rect x="715" y="268" width="35" height="167" fill="#22c55e" opacity="1"/>
    <rect x="770" y="252" width="35" height="183" fill="#22c55e" opacity="1"/>
    <rect x="825" y="240" width="55" height="195" fill="#22c55e" opacity="1"/>
    <!-- Labels plataformas -->
    <text x="110" y="462" fill="#4b7bff" font-family="Arial" font-weight="900" font-size="14">META ADS</text>
    <text x="320" y="462" fill="#ea4335" font-family="Arial" font-weight="900" font-size="14">GOOGLE ADS</text>
    <text x="580" y="462" fill="#00f2ea" font-family="Arial" font-weight="900" font-size="14">TIKTOK ADS</text>
    <text x="780" y="462" fill="#ff0000" font-family="Arial" font-weight="900" font-size="14">YOUTUBE</text>
    <!-- Funil -->
    <rect x="90" y="480" width="830" height="180" rx="4" fill="#0d1421" stroke="#1e3a5f" stroke-width="0.5"/>
    <text x="110" y="504" fill="#6b7280" font-family="Arial" font-size="12" letter-spacing="1">FUNIL DE CONVERSAO</text>
    <polygon points="90,520 930,520 860,640 160,640" fill="#3b82f6" opacity="0.12" stroke="#3b82f6" stroke-width="1"/>
    <polygon points="160,520 860,520 800,580 220,580" fill="#3b82f6" opacity="0.2"/>
    <polygon points="220,520 800,520 750,560 270,560" fill="#3b82f6" opacity="0.35"/>
    <text x="512" y="548" text-anchor="middle" fill="#fff" font-family="Arial" font-weight="700" font-size="16">TRAFEGO → LEADS → VENDAS</text>

  <!-- Gradiente escuro embaixo (area do titulo) -->
  <rect width="1024" height="1792" fill="url(#fadeBottom)"/>

  <!-- Gradiente escuro em cima -->
  <rect width="1024" height="340" fill="url(#fadeTop)"/>

  <!-- Linha de cor no topo -->
  <rect x="0" y="0" width="1024" height="10" fill="url(#acc2)"/>

  <!-- TITULO -->
  
    <text x="516" y="1219" text-anchor="middle" fill="#000000" font-family="Arial Black, Arial" font-weight="900" font-size="72" opacity="0.5">DOMINANDO O</text>
    <text x="512" y="1216" text-anchor="middle" fill="#ffffff" font-family="Arial Black, Arial" font-weight="900" font-size="72" stroke="#000000" stroke-width="6" paint-order="stroke">DOMINANDO O</text>
    <text x="516" y="1301" text-anchor="middle" fill="#000000" font-family="Arial Black, Arial" font-weight="900" font-size="72" opacity="0.5">TRÁFEGO PAGO -</text>
    <text x="512" y="1298" text-anchor="middle" fill="#ffffff" font-family="Arial Black, Arial" font-weight="900" font-size="72" stroke="#000000" stroke-width="6" paint-order="stroke">TRÁFEGO PAGO -</text>
    <text x="516" y="1383" text-anchor="middle" fill="#000000" font-family="Arial Black, Arial" font-weight="900" font-size="72" opacity="0.5">COMPLETO</text>
    <text x="512" y="1380" text-anchor="middle" fill="#ffffff" font-family="Arial Black, Arial" font-weight="900" font-size="72" stroke="#000000" stroke-width="6" paint-order="stroke">COMPLETO</text>

  <!-- Linha decorativa -->
  <rect x="60" y="1404" width="904" height="5" fill="url(#acc)" opacity="0.9" rx="2"/>

  <!-- Subtitulo -->
  <text x="512" y="1444" text-anchor="middle" fill="#3b82f6" font-family="Arial" font-weight="700" font-size="26" opacity="0.95"
    stroke="#000000" stroke-width="3" paint-order="stroke">META · GOOGLE · TIKTOK · ROAS 8.4x</text>

  <!-- Metadados -->
  <text x="512" y="1757" text-anchor="middle" fill="#9ca3af" font-family="Arial" font-size="22" opacity="0.85"
    stroke="#000000" stroke-width="3" paint-order="stroke">380H  |  217 MODULOS  |  1519 TOPICOS</text>

  <!-- Barra lateral esquerda -->
  <rect x="0" y="0" width="8" height="1792" fill="url(#acc2)" opacity="0.8"/>

</svg>