<svg xmlns="http://www.w3.org/2000/svg" viewBox="0 0 1024 1792" width="1024" height="1792">
  <defs>
    <linearGradient id="bg" x1="0%" y1="0%" x2="0%" y2="100%">
      <stop offset="0%" stop-color="#1a1200"/>
      <stop offset="100%" stop-color="#0a0800"/>
    </linearGradient>
    <linearGradient id="acc" x1="0%" y1="0%" x2="100%" y2="0%">
      <stop offset="0%" stop-color="#f59e0b" stop-opacity="0"/>
      <stop offset="50%" stop-color="#f59e0b"/>
      <stop offset="100%" stop-color="#f59e0b" stop-opacity="0"/>
    </linearGradient>
    <linearGradient id="acc2" x1="0%" y1="0%" x2="100%" y2="100%">
      <stop offset="0%" stop-color="#f59e0b"/>
      <stop offset="100%" stop-color="#d97706"/>
    </linearGradient>
    <linearGradient id="fadeBottom" x1="0%" y1="0%" x2="0%" y2="100%">
      <stop offset="0%" stop-color="#000000" stop-opacity="0"/>
      <stop offset="55%" stop-color="#000000" stop-opacity="0.85"/>
      <stop offset="100%" stop-color="#000000" stop-opacity="0.98"/>
    </linearGradient>
    <linearGradient id="fadeTop" x1="0%" y1="0%" x2="0%" y2="100%">
      <stop offset="0%" stop-color="#000000" stop-opacity="0.7"/>
      <stop offset="100%" stop-color="#000000" stop-opacity="0"/>
    </linearGradient>
  </defs>

  <!-- Fundo -->
  <rect width="1024" height="1792" fill="url(#bg)"/>

  <!-- Elementos visuais tematicos -->
  
    <!-- Meridianos e paralelos -->
    <g opacity="0.15" stroke="#f59e0b" stroke-width="0.5" fill="none">
      <ellipse cx="512" cy="380" rx="280" ry="280"/>
      <ellipse cx="512" cy="380" rx="280" ry="100"/>
      <ellipse cx="512" cy="380" rx="280" ry="180"/>
      <ellipse cx="512" cy="380" rx="100" ry="280"/>
      <ellipse cx="512" cy="380" rx="180" ry="280"/>
      <line x1="512" y1="100" x2="512" y2="660"/>
    </g>
    <!-- Continentes abstratos -->
    <g opacity="0.3">
      <ellipse cx="380" cy="320" rx="90" ry="60" fill="#1d3a1a" stroke="#22c55e" stroke-width="1"/>
      <ellipse cx="580" cy="280" rx="70" ry="50" fill="#1a1d3a" stroke="#3b82f6" stroke-width="1"/>
      <ellipse cx="460" cy="430" rx="55" ry="40" fill="#1d1a3a" stroke="#a855f7" stroke-width="1"/>
      <ellipse cx="640" cy="400" rx="45" ry="35" fill="#3a1a1a" stroke="#ef4444" stroke-width="1"/>
    </g>
    <!-- Pontos de tensao -->
    <circle cx="520" cy="340" r="8" fill="#ef4444" opacity="0.9"/>
    <circle cx="520" cy="340" r="18" fill="none" stroke="#ef4444" stroke-width="1.5" opacity="0.5"/>
    <circle cx="520" cy="340" r="30" fill="none" stroke="#ef4444" stroke-width="1" opacity="0.25"/>
    <circle cx="390" cy="310" r="6" fill="#3b82f6" opacity="0.8"/>
    <circle cx="390" cy="310" r="14" fill="none" stroke="#3b82f6" stroke-width="1" opacity="0.4"/>
    <circle cx="620" cy="370" r="6" fill="#ef4444" opacity="0.8"/>
    <circle cx="620" cy="370" r="14" fill="none" stroke="#ef4444" stroke-width="1" opacity="0.4"/>
    <!-- Linhas de conexao -->
    <path d="M390,310 Q505,260 520,340" fill="none" stroke="#f59e0b" stroke-width="1" stroke-dasharray="4,3" opacity="0.4"/>
    <path d="M620,370 Q570,300 520,340" fill="none" stroke="#ef4444" stroke-width="1" stroke-dasharray="4,3" opacity="0.4"/>
    <!-- Pecas de xadrez -->
    <g fill="#f59e0b" opacity="0.2">
      <rect x="200" y="580" width="20" height="50" rx="3"/>
      <circle cx="210" cy="570" r="15"/>
      <rect x="280" y="600" width="20" height="40" rx="3"/>
      <circle cx="290" cy="590" r="13"/>
      <rect x="740" y="580" width="20" height="50" rx="3"/>
      <circle cx="750" cy="570" r="15"/>
    </g>

  <!-- Gradiente escuro embaixo (area do titulo) -->
  <rect width="1024" height="1792" fill="url(#fadeBottom)"/>

  <!-- Gradiente escuro em cima -->
  <rect width="1024" height="340" fill="url(#fadeTop)"/>

  <!-- Linha de cor no topo -->
  <rect x="0" y="0" width="1024" height="10" fill="url(#acc2)"/>

  <!-- TITULO -->
  
    <text x="516" y="1285" text-anchor="middle" fill="#000000" font-family="Arial Black, Arial" font-weight="900" font-size="88" opacity="0.5">GEOPOLÍTICA</text>
    <text x="512" y="1282" text-anchor="middle" fill="#ffffff" font-family="Arial Black, Arial" font-weight="900" font-size="88" stroke="#000000" stroke-width="6" paint-order="stroke">GEOPOLÍTICA</text>
    <text x="516" y="1383" text-anchor="middle" fill="#000000" font-family="Arial Black, Arial" font-weight="900" font-size="88" opacity="0.5">AVANÇADA</text>
    <text x="512" y="1380" text-anchor="middle" fill="#ffffff" font-family="Arial Black, Arial" font-weight="900" font-size="88" stroke="#000000" stroke-width="6" paint-order="stroke">AVANÇADA</text>

  <!-- Linha decorativa -->
  <rect x="60" y="1404" width="904" height="5" fill="url(#acc)" opacity="0.9" rx="2"/>

  <!-- Subtitulo -->
  <text x="512" y="1444" text-anchor="middle" fill="#f59e0b" font-family="Arial" font-weight="700" font-size="26" opacity="0.95"
    stroke="#000000" stroke-width="3" paint-order="stroke">PODER · CONFLITO · ECONOMIA GLOBAL</text>

  <!-- Metadados -->
  <text x="512" y="1757" text-anchor="middle" fill="#9ca3af" font-family="Arial" font-size="22" opacity="0.85"
    stroke="#000000" stroke-width="3" paint-order="stroke">90H  |  27 MODULOS  |  271 TOPICOS</text>

  <!-- Barra lateral esquerda -->
  <rect x="0" y="0" width="8" height="1792" fill="url(#acc2)" opacity="0.8"/>

</svg>