<svg xmlns="http://www.w3.org/2000/svg" viewBox="0 0 1024 1792" width="1024" height="1792">
  <defs>
    <linearGradient id="bg" x1="0%" y1="0%" x2="0%" y2="100%">
      <stop offset="0%" stop-color="#140008"/>
      <stop offset="100%" stop-color="#0a0005"/>
    </linearGradient>
    <linearGradient id="acc" x1="0%" y1="0%" x2="100%" y2="0%">
      <stop offset="0%" stop-color="#f43f5e" stop-opacity="0"/>
      <stop offset="50%" stop-color="#f43f5e"/>
      <stop offset="100%" stop-color="#f43f5e" stop-opacity="0"/>
    </linearGradient>
    <linearGradient id="acc2" x1="0%" y1="0%" x2="100%" y2="100%">
      <stop offset="0%" stop-color="#f43f5e"/>
      <stop offset="100%" stop-color="#fb7185"/>
    </linearGradient>
    <linearGradient id="fadeBottom" x1="0%" y1="0%" x2="0%" y2="100%">
      <stop offset="0%" stop-color="#000000" stop-opacity="0"/>
      <stop offset="55%" stop-color="#000000" stop-opacity="0.85"/>
      <stop offset="100%" stop-color="#000000" stop-opacity="0.98"/>
    </linearGradient>
    <linearGradient id="fadeTop" x1="0%" y1="0%" x2="0%" y2="100%">
      <stop offset="0%" stop-color="#000000" stop-opacity="0.7"/>
      <stop offset="100%" stop-color="#000000" stop-opacity="0"/>
    </linearGradient>
  </defs>

  <!-- Fundo -->
  <rect width="1024" height="1792" fill="url(#bg)"/>

  <!-- Elementos visuais tematicos -->
  
    <!-- Silhueta em meditacao -->
    <!-- Cabeca -->
    <circle cx="512" cy="280" r="70" fill="none" stroke="#f43f5e" stroke-width="1.5" opacity="0.4"/>
    <circle cx="512" cy="280" r="70" fill="#f43f5e" opacity="0.04"/>
    <!-- Pescoco -->
    <rect x="490" y="348" width="44" height="40" rx="6" fill="none" stroke="#f43f5e" stroke-width="1" opacity="0.3"/>
    <!-- Tronco -->
    <path d="M270,580 L320,388 L512,378 L704,388 L754,580 Q730,630 512,640 Q294,630 270,580 Z" fill="none" stroke="#f43f5e" stroke-width="1.5" opacity="0.38"/>
    <!-- Coracao luminoso -->
    <path d="M512,510 C512,510 452,470 452,432 C452,410 468,396 486,396 C496,397 504,403 512,412 C520,403 528,397 538,396 C556,396 572,410 572,432 C572,470 512,510 512,510 Z" fill="#f43f5e" opacity="0.9"/>
    <!-- Brilho do coracao -->
    <circle cx="512" cy="450" r="80" fill="#f43f5e" opacity="0.15"/>
    <circle cx="512" cy="450" r="130" fill="none" stroke="#f43f5e" stroke-width="1.5" opacity="0.25"/>
    <circle cx="512" cy="450" r="180" fill="none" stroke="#f43f5e" stroke-width="1" opacity="0.15"/>
    <circle cx="512" cy="450" r="240" fill="none" stroke="#f43f5e" stroke-width="0.8" opacity="0.08"/>
    <!-- Pulso cardiaco -->
    <polyline points="80,540 160,540 195,490 230,595 265,470 300,540 340,540 512,540 580,540 615,505 650,580 685,520 720,540 944,540" fill="none" stroke="#f43f5e" stroke-width="2.5" stroke-linejoin="round" stroke-linecap="round" opacity="0.7"/>
    <!-- Particulas de luz -->
    <g fill="#f43f5e" opacity="0.5">
      <circle cx="200" cy="320" r="4"/>
      <circle cx="280" cy="240" r="3"/>
      <circle cx="180" cy="440" r="5"/>
      <circle cx="820" cy="300" r="4"/>
      <circle cx="760" cy="220" r="3"/>
      <circle cx="840" cy="420" r="5"/>
      <circle cx="350" cy="160" r="3"/>
      <circle cx="650" cy="155" r="3"/>
      <circle cx="450" cy="130" r="4"/>
      <circle cx="570" cy="145" r="3"/>
    </g>
    <!-- Labels 5 pilares -->
    <text x="512" y="70" text-anchor="middle" fill="#f43f5e" font-family="Arial" font-weight="700" font-size="18" opacity="0.8" letter-spacing="2">AUTOCONHECIMENTO</text>
    <text x="95" y="240" text-anchor="middle" fill="#fb7185" font-family="Arial" font-weight="700" font-size="15" opacity="0.75">AUTO-</text>
    <text x="95" y="260" text-anchor="middle" fill="#fb7185" font-family="Arial" font-weight="700" font-size="15" opacity="0.75">CONTROLE</text>
    <text x="929" y="240" text-anchor="middle" fill="#fb7185" font-family="Arial" font-weight="700" font-size="15" opacity="0.75">EMPATIA</text>
    <text x="85" y="480" text-anchor="middle" fill="#fda4af" font-family="Arial" font-weight="700" font-size="14" opacity="0.7">HAB.</text>
    <text x="85" y="498" text-anchor="middle" fill="#fda4af" font-family="Arial" font-weight="700" font-size="14" opacity="0.7">SOCIAIS</text>
    <text x="939" y="480" text-anchor="middle" fill="#fda4af" font-family="Arial" font-weight="700" font-size="14" opacity="0.7">MOTI-</text>
    <text x="939" y="498" text-anchor="middle" fill="#fda4af" font-family="Arial" font-weight="700" font-size="14" opacity="0.7">VACAO</text>

  <!-- Gradiente escuro embaixo (area do titulo) -->
  <rect width="1024" height="1792" fill="url(#fadeBottom)"/>

  <!-- Gradiente escuro em cima -->
  <rect width="1024" height="340" fill="url(#fadeTop)"/>

  <!-- Linha de cor no topo -->
  <rect x="0" y="0" width="1024" height="10" fill="url(#acc2)"/>

  <!-- TITULO -->
  
    <text x="516" y="1285" text-anchor="middle" fill="#000000" font-family="Arial Black, Arial" font-weight="900" font-size="88" opacity="0.5">INTELIGÊNCIA</text>
    <text x="512" y="1282" text-anchor="middle" fill="#ffffff" font-family="Arial Black, Arial" font-weight="900" font-size="88" stroke="#000000" stroke-width="6" paint-order="stroke">INTELIGÊNCIA</text>
    <text x="516" y="1383" text-anchor="middle" fill="#000000" font-family="Arial Black, Arial" font-weight="900" font-size="88" opacity="0.5">EMOCIONAL</text>
    <text x="512" y="1380" text-anchor="middle" fill="#ffffff" font-family="Arial Black, Arial" font-weight="900" font-size="88" stroke="#000000" stroke-width="6" paint-order="stroke">EMOCIONAL</text>

  <!-- Linha decorativa -->
  <rect x="60" y="1404" width="904" height="5" fill="url(#acc)" opacity="0.9" rx="2"/>

  <!-- Subtitulo -->
  <text x="512" y="1444" text-anchor="middle" fill="#f43f5e" font-family="Arial" font-weight="700" font-size="26" opacity="0.95"
    stroke="#000000" stroke-width="3" paint-order="stroke">AUTOCONHECIMENTO · EMPATIA · SUCESSO</text>

  <!-- Metadados -->
  <text x="512" y="1757" text-anchor="middle" fill="#9ca3af" font-family="Arial" font-size="22" opacity="0.85"
    stroke="#000000" stroke-width="3" paint-order="stroke">35H  |  20 MODULOS  |  140 TOPICOS</text>

  <!-- Barra lateral esquerda -->
  <rect x="0" y="0" width="8" height="1792" fill="url(#acc2)" opacity="0.8"/>

</svg>